HIERARCHY
ROOT Hips
{
	OFFSET 0.000000 0.000000 0.000000
	CHANNELS 6 Xposition Yposition Zposition Xrotation Yrotation Zrotation
	JOINT LeftUpLeg_virtual
	{
		OFFSET 0.000000 0.000000 0.000000
		CHANNELS 3 Xrotation Yrotation Zrotation
		JOINT LeftUpLeg
		{
			OFFSET 13.026900 -6.336304 -1.092800
			CHANNELS 3 Xrotation Yrotation Zrotation
			JOINT LeftLeg
			{
				OFFSET 0.524474 -46.096886 9.782700
				CHANNELS 3 Xrotation Yrotation Zrotation
				JOINT LeftFoot
				{
					OFFSET -0.524474 -53.427422 -12.948200
					CHANNELS 3 Xrotation Yrotation Zrotation
					JOINT LeftToeBase
					{
						OFFSET 0.192200 -14.009700 16.364100
						CHANNELS 3 Xrotation Yrotation Zrotation
						JOINT LeftToe_End
						{
							OFFSET -1.784700 -0.561700 9.474800
							CHANNELS 3 Xrotation Yrotation Zrotation
							End Site
							{
								OFFSET 0 0 0
							}
						}
					}
				}
			}
		}
	}
	JOINT RightUpLeg_virtual
	{
		OFFSET 0.000000 0.000000 0.000000
		CHANNELS 3 Xrotation Yrotation Zrotation
		JOINT RightUpLeg
		{
			OFFSET -12.883000 -6.336304 -1.092800
			CHANNELS 3 Xrotation Yrotation Zrotation
			JOINT RightLeg
			{
				OFFSET -0.524587 -46.096825 9.782800
				CHANNELS 3 Xrotation Yrotation Zrotation
				JOINT RightFoot
				{
					OFFSET 0.524587 -53.427383 -12.948300
					CHANNELS 3 Xrotation Yrotation Zrotation
					JOINT RightToeBase
					{
						OFFSET -0.192200 -14.009700 16.364100
						CHANNELS 3 Xrotation Yrotation Zrotation
						JOINT RightToe_End
						{
							OFFSET 1.784700 -0.561700 9.474800
							CHANNELS 3 Xrotation Yrotation Zrotation
							End Site
							{
								OFFSET 0 0 0
							}
						}
					}
				}
			}
		}
	}
	JOINT Spine_virtual
	{
		OFFSET 0.000000 0.000000 0.000000
		CHANNELS 3 Xrotation Yrotation Zrotation
		JOINT Spine
		{
			OFFSET 0.072000 7.257294 -0.789700
			CHANNELS 3 Xrotation Yrotation Zrotation
			JOINT Spine1
			{
				OFFSET 0.000000 12.508769 -0.658067
				CHANNELS 3 Xrotation Yrotation Zrotation
				JOINT Spine1_split
				{
					OFFSET 0.000000 12.508769 -0.658067
					CHANNELS 3 Xrotation Yrotation Zrotation
					JOINT Spine2
					{
						OFFSET 0.000000 12.508769 -0.658067
						CHANNELS 3 Xrotation Yrotation Zrotation
						JOINT Neck_virtual
						{
							OFFSET 0.000000 0.000000 0.000000
							CHANNELS 3 Xrotation Yrotation Zrotation
							JOINT Neck
							{
								OFFSET 0.000000 14.033295 7.520400
								CHANNELS 3 Xrotation Yrotation Zrotation
								JOINT Head
								{
									OFFSET 0.000000 8.198502 5.703100
									CHANNELS 3 Xrotation Yrotation Zrotation
									JOINT HeadTop_End
									{
										OFFSET 0.000000 17.760803 13.332701
										CHANNELS 3 Xrotation Yrotation Zrotation
										End Site
										{
											OFFSET 0 0 0
										}
									}
								}
							}
						}
						JOINT LeftShoulder_virtual
						{
							OFFSET 0.000000 0.000000 0.000000
							CHANNELS 3 Xrotation Yrotation Zrotation
							JOINT LeftShoulder
							{
								OFFSET 6.292450 5.785301 -0.669000
								CHANNELS 3 Xrotation Yrotation Zrotation
								JOINT LeftShoulder_split
								{
									OFFSET 6.292450 5.785301 -0.669000
									CHANNELS 3 Xrotation Yrotation Zrotation
									JOINT LeftArm
									{
										OFFSET 13.907140 -6.093903 1.965100
										CHANNELS 3 Xrotation Yrotation Zrotation
										JOINT LeftForeArm
										{
											OFFSET 34.140198 0.000000 0.000000
											CHANNELS 3 Xrotation Yrotation Zrotation
											JOINT LeftHand
											{
												OFFSET 40.960209 0.000000 0.000000
												CHANNELS 3 Xrotation Yrotation Zrotation
												End Site
												{
													OFFSET 0 0 0
												}
											}
										}
									}
								}
							}
						}
						JOINT RightShoulder_virtual
						{
							OFFSET 0.000000 0.000000 0.000000
							CHANNELS 3 Xrotation Yrotation Zrotation
							JOINT RightShoulder
							{
								OFFSET -6.292450 5.785301 -0.669000
								CHANNELS 3 Xrotation Yrotation Zrotation
								JOINT RightShoulder_split
								{
									OFFSET -6.292450 5.785301 -0.669000
									CHANNELS 3 Xrotation Yrotation Zrotation
									JOINT RightArm
									{
										OFFSET -13.907140 -6.093903 1.965100
										CHANNELS 3 Xrotation Yrotation Zrotation
										JOINT RightForeArm
										{
											OFFSET -34.140198 0.000000 0.000000
											CHANNELS 3 Xrotation Yrotation Zrotation
											JOINT RightHand
											{
												OFFSET -40.960209 0.000000 0.000000
												CHANNELS 3 Xrotation Yrotation Zrotation
												End Site
												{
													OFFSET 0 0 0
												}
											}
										}
									}
								}
							}
						}
					}
				}
			}
		}
	}
}
MOTION
Frames: 10
Frame Time: 0.03333333
-0.663239 155.769241 388.626190 0.000000 0.000000 0.000000 19.543637 -39.041143 30.307680 -82.096108 -17.482658 14.558459 85.391114 8.967390 2.848939 -9.497134 1.069096 2.845405 2.466913 -0.654413 -4.400198 0.000000 0.000000 0.000000 15.299197 -36.358244 25.949632 -90.407410 -14.323462 -8.337841 78.440379 16.640660 10.189093 24.397994 17.159337 10.564954 -5.231597 2.051600 -1.096187 0.000000 0.000000 0.000000 14.878621 -29.950673 25.467537 33.748678 2.603466 -29.061915 13.644565 -0.127710 -3.226152 1.993042 -0.353726 0.458035 0.000000 0.000000 0.000000 18.509666 -1.279222 -0.156517 -2.258065 13.553151 -13.673240 -38.381825 -4.768529 0.565633 0.000000 0.000000 0.000000 17.333463 -0.699781 -0.916830 3.211097 -17.228838 -3.695521 1.323544 -2.153790 -0.473965 -87.278104 3.089148 -4.890189 10.536607 -56.707560 6.329229 0.000000 0.000000 0.000000 17.529470 -1.482613 -0.696055 5.972381 28.478735 -0.711207 -1.822188 3.709426 6.243346 -64.801577 -8.700590 40.622523 -82.394969 24.439240 59.396807 0.000000 0.000000 0.000000 
-1.009315 153.874847 400.978302 0.000000 0.000000 0.000000 19.554231 -35.280803 27.741846 -76.398528 -13.726794 18.807648 75.930755 9.887467 2.348859 -12.327099 3.154429 4.039817 0.831637 -0.774827 -4.011817 0.000000 0.000000 0.000000 17.292007 -35.288780 24.853861 -86.900183 -18.454654 -9.501836 58.488037 11.270873 13.973999 23.309702 14.449071 10.599069 -5.596307 2.364725 -0.875569 0.000000 0.000000 0.000000 16.572643 -28.388617 24.380458 34.056300 3.226531 -26.988178 13.078418 -0.492067 -3.216286 2.817689 0.287046 0.389672 0.000000 0.000000 0.000000 18.058156 -1.514298 -0.408207 -2.719147 14.061520 -15.833867 -41.251518 -5.308835 1.189594 0.000000 0.000000 0.000000 16.740905 -1.001353 -1.047697 3.430395 -15.416123 -3.825595 1.597853 -2.935977 -0.741216 -85.452907 -0.024131 -2.925518 0.762767 -57.168595 -1.906719 0.000000 0.000000 0.000000 16.936014 -1.850875 -0.872690 5.593676 27.041038 1.533365 -1.262380 2.319262 6.472692 -59.809918 -8.454050 42.620411 -83.861691 26.353851 63.107628 0.000000 0.000000 0.000000 
-1.596589 149.501038 412.705780 0.000000 0.000000 0.000000 17.751923 -30.407053 24.159684 -73.072048 -10.440993 22.284916 67.496933 9.703661 2.400635 -13.938499 3.795586 3.929769 -0.610422 -0.844750 -3.254323 0.000000 0.000000 0.000000 18.234296 -33.054837 23.361308 -79.335113 -18.981155 -10.401670 41.086778 6.214856 14.882538 22.434924 10.627295 10.361907 -4.459387 2.417596 -0.083223 0.000000 0.000000 0.000000 16.963700 -27.069587 22.710753 33.321505 4.196578 -24.477542 12.177790 -0.867048 -2.835924 2.681755 0.652840 0.212024 0.000000 0.000000 0.000000 16.977250 -1.674335 -0.241209 -2.399191 13.996611 -17.630721 -43.036489 -4.766555 1.540789 0.000000 0.000000 0.000000 15.910195 -1.227138 -0.642023 3.517652 -12.369562 -3.545466 2.781128 -3.508942 -1.221674 -83.470314 -0.761652 -1.300805 -6.858536 -58.550130 -8.452550 0.000000 0.000000 0.000000 16.155530 -2.107922 -0.612574 5.339559 25.691777 3.998531 -1.671645 1.418115 6.221335 -51.829695 -6.977562 44.192902 -83.660986 28.277610 66.130718 0.000000 0.000000 0.000000 
-1.764279 143.372360 424.525360 0.000000 0.000000 0.000000 15.736910 -25.781572 20.873473 -71.488708 -8.662230 24.251802 60.042192 8.682624 2.949461 -14.495210 3.402404 2.349595 -1.157673 -0.870197 -2.569013 0.000000 0.000000 0.000000 17.826671 -29.641877 21.412170 -68.665934 -15.632211 -10.893668 29.647242 4.365897 13.676461 21.316173 7.394797 11.469365 -3.116270 2.210180 0.867523 0.000000 0.000000 0.000000 16.681441 -26.070089 20.930169 31.908605 5.133723 -21.772953 10.925967 -1.268525 -2.272798 1.636762 1.300204 0.258676 0.000000 0.000000 0.000000 15.407339 -1.821726 0.211987 -1.060738 13.473401 -18.799621 -43.338691 -3.093398 1.617057 0.000000 0.000000 0.000000 14.841156 -1.432697 0.082110 3.443960 -8.971655 -3.052992 4.648161 -3.399636 -1.570007 -82.009794 1.102169 0.292953 -13.648466 -61.035909 -14.556603 0.000000 0.000000 0.000000 15.189540 -2.314690 -0.055526 5.138363 24.492111 6.386782 -2.591991 0.854108 5.869678 -41.521441 -5.419268 44.793767 -82.865405 30.527254 69.072378 0.000000 0.000000 0.000000 
-1.616984 136.358032 437.091064 0.000000 0.000000 0.000000 14.420503 -22.963364 18.266117 -70.324721 -8.532109 24.592354 53.073288 7.928279 3.703837 -14.130627 2.449284 0.365012 -1.273492 -0.870887 -2.059135 0.000000 0.000000 0.000000 17.147509 -26.801382 19.401712 -56.066906 -9.347898 -10.229777 23.824345 5.065189 11.751234 18.007652 4.425292 12.908725 -2.465697 1.724037 1.524203 0.000000 0.000000 0.000000 16.143381 -25.737293 18.983053 30.106186 5.997035 -18.836586 9.424662 -1.638803 -1.754166 0.698686 0.960798 0.303592 0.000000 0.000000 0.000000 13.429442 -2.064208 0.657693 1.539072 12.765896 -19.168381 -41.907268 -0.257531 1.547445 0.000000 0.000000 0.000000 13.516702 -1.668640 0.792210 3.123992 -6.073439 -2.408911 6.006117 -2.533051 -2.481101 -81.363850 5.030258 1.650976 -20.955893 -64.174265 -21.506813 0.000000 0.000000 0.000000 13.920677 -2.506907 0.520655 4.854787 23.267591 8.762258 -3.677577 0.444455 5.847523 -29.805726 -5.542745 44.633124 -83.047983 33.583753 73.168565 0.000000 0.000000 0.000000 
-1.265574 129.194260 450.895691 0.000000 0.000000 0.000000 13.591364 -22.367857 15.793943 -67.955075 -8.603130 24.377191 45.969403 8.649459 4.209079 -13.693070 1.731753 -0.388330 -0.986861 -0.898657 -1.802894 0.000000 0.000000 0.000000 15.776806 -25.714330 17.169823 -43.236470 -1.897770 -8.413586 23.058198 7.116270 9.530000 10.224587 1.457104 12.525527 -2.245148 1.079518 1.752392 0.000000 0.000000 0.000000 15.526384 -26.216313 16.730478 28.425664 6.807359 -15.662566 7.596295 -1.876653 -1.487275 0.378147 0.430248 0.124192 0.000000 0.000000 0.000000 11.196306 -2.302965 0.771928 5.197361 11.872856 -18.741503 -38.900355 3.060576 1.127552 0.000000 0.000000 0.000000 11.865767 -1.904615 1.166327 2.614247 -4.437206 -2.084175 6.676199 -1.527796 -3.415121 -80.503786 9.716446 2.600550 -30.285834 -68.078340 -30.760962 0.000000 0.000000 0.000000 12.240501 -2.660009 0.890132 4.515970 21.834417 10.853183 -4.362923 0.036033 5.940744 -17.747948 -8.606200 44.492662 -85.576321 37.451245 79.397930 0.000000 0.000000 0.000000 
-0.419607 122.565323 465.728516 0.000000 0.000000 0.000000 13.017039 -24.216203 13.278912 -63.942872 -7.458530 24.393599 39.152820 11.027264 4.321205 -12.791029 1.665832 0.414282 -0.656295 -1.027116 -1.661473 0.000000 0.000000 0.000000 13.530277 -26.802854 14.358108 -31.394497 4.713445 -6.405795 26.247329 8.565096 7.219572 -0.864084 -1.095458 8.814299 -3.022147 0.431038 1.781232 0.000000 0.000000 0.000000 14.372936 -27.583482 14.263400 27.164362 7.580565 -12.392080 5.568975 -1.815982 -1.439896 0.962831 -0.062251 0.254352 0.000000 0.000000 0.000000 8.785934 -2.450200 0.572955 9.083738 10.853602 -17.532925 -34.737301 6.231520 0.319346 0.000000 0.000000 0.000000 9.841499 -2.059360 1.184329 1.976052 -4.431515 -2.293065 6.110350 -0.832513 -3.850491 -78.085414 14.211560 2.567490 -42.780084 -72.377363 -43.622164 0.000000 0.000000 0.000000 9.996641 -2.726146 0.972910 4.142752 20.004740 12.457062 -4.348927 0.040035 5.665250 -6.611483 -14.458247 45.206078 -90.231375 41.243199 87.034628 0.000000 0.000000 0.000000 
0.146015 117.337257 480.744476 0.000000 0.000000 0.000000 11.878856 -27.135411 10.436000 -59.043441 -4.513865 24.879657 33.799485 14.245136 3.908382 -10.397588 1.742925 1.671970 -1.103938 -1.189298 -1.316550 0.000000 0.000000 0.000000 10.641999 -29.882129 11.311008 -21.686185 9.414560 -4.777548 31.188331 8.420804 5.043276 -10.898771 -2.198266 2.996951 -5.409433 -0.187272 1.812132 0.000000 0.000000 0.000000 12.691734 -29.218600 11.396621 26.534571 8.306953 -9.337733 3.379461 -1.410154 -1.344717 1.796379 -0.894817 0.577773 0.000000 0.000000 0.000000 6.233251 -2.353947 0.279500 12.372612 9.782756 -15.975999 -30.196280 8.668288 -0.713845 0.000000 0.000000 0.000000 7.420277 -2.032319 1.074644 1.259692 -5.855830 -3.002843 4.940015 -0.381836 -3.784543 -73.574887 17.595242 0.937147 -59.202092 -76.504580 -60.955456 0.000000 0.000000 0.000000 7.135546 -2.597348 0.981670 3.825959 17.755635 13.688736 -3.786492 0.883399 4.681830 2.987868 -21.789550 47.462923 -94.232944 44.528390 93.140865 0.000000 0.000000 0.000000 
0.332502 113.494606 495.932678 0.000000 0.000000 0.000000 9.666112 -29.294883 7.331558 -54.820321 0.103620 25.426107 31.174824 17.601973 2.528173 -6.136562 1.725968 2.482218 -1.833346 -1.348240 -0.837060 0.000000 0.000000 0.000000 7.409712 -33.365638 8.057197 -14.147478 12.171197 -4.425823 36.111907 7.432866 3.261428 -14.714189 -1.540187 -0.532804 -10.186556 -0.737064 1.991783 0.000000 0.000000 0.000000 10.138165 -30.246612 8.206710 26.723052 8.709238 -7.248066 1.079110 -0.811856 -0.965610 2.257742 -1.307698 1.345647 0.000000 0.000000 0.000000 3.775779 -1.956544 0.292400 13.779412 8.704581 -14.592320 -26.166231 9.689331 -1.717178 0.000000 0.000000 0.000000 4.689625 -1.778122 1.230026 0.554351 -8.293214 -4.168116 4.430103 0.103961 -3.069938 -67.445482 19.193996 -2.574071 -81.648464 -80.128323 -84.798889 0.000000 0.000000 0.000000 3.842182 -2.327181 1.252208 3.512733 15.160703 14.569832 -3.164633 2.387092 3.214569 11.363650 -28.512964 50.950496 -95.370724 47.686472 95.555453 0.000000 0.000000 0.000000 
0.488497 110.964043 510.258636 0.000000 0.000000 0.000000 6.893723 -30.278085 4.566497 -52.383511 4.908495 25.530465 32.341291 20.342677 -0.048616 0.014601 1.342943 1.853457 -2.611328 -1.404935 -0.316482 0.000000 0.000000 0.000000 5.051503 -35.763308 5.146530 -7.732637 13.360251 -5.229006 38.637680 5.912342 1.942112 -11.425699 -0.425600 -0.423782 -17.165379 -1.235664 2.231059 0.000000 0.000000 0.000000 7.199594 -30.094374 5.214516 27.622952 8.572572 -6.537617 -1.169649 -0.180800 -0.035583 1.951132 -1.634432 2.103237 0.000000 0.000000 0.000000 1.606193 -1.425789 0.966582 12.817036 7.830147 -13.802799 -23.037465 9.589039 -2.340695 0.000000 0.000000 0.000000 1.828352 -1.405561 1.945744 -0.094845 -11.115693 -5.293500 4.200243 1.260705 -2.246417 -61.370862 18.548159 -7.656441 -111.955065 -82.834724 -116.755650 0.000000 0.000000 0.000000 0.427789 -2.062038 2.013083 3.265539 12.272218 15.470100 -2.749999 3.664518 1.845127 18.399869 -32.953013 55.079363 -93.657446 51.321720 94.488250 0.000000 0.000000 0.000000 
